<svg xmlns="http://www.w3.org/2000/svg" fill="currentColor" viewBox="0 0 2242 512"><path d="M2242 315h-304v-10h304zm-152-58 28-27 12 12-31 26-6 11h-22c3-9 10-17 19-22m-96-174 3 1-17 17-5 2-9 9-21-4c1-3 6-8 11-11l15-8zm138 55c9 8 38 15 38 42 0 12-5 23-13 32l9 30c1 2 1 3-1 5l-30 34-3 14-26 1c1-10 7-18 15-23l22-27-37-39-7-24c-15-9-30-19-44-31-6-8-12-16-16-25l-31-22-11 9-1 19 5 12-12 17c-5-6-7-15-7-23l1-7v-22l2-4 18-20 4-1 24 8 20-14 17-26-28 5-7-5-1-12 43-29-2-11 2-1c5 0 14 10 17 13l14 21c2 21-1 42-9 61 11 15 22 30 35 43m47 46c-1-7-3-14-6-20s1-1 3 1l19 12c8 12 13 60 13 78-9-4-17-10-25-16zm-475 241c-4 0-8-4-9-8 1-5 5-9 9-9 5 0 9 4 9 9 0 4-4 8-9 8m-828 75c8-1 15-3 22-7v-59h15v77h-10c-3 0-5-1-5-9a50 50 0 0 1-31 10 19 19 0 0 1-18-21v-57h15v54c0 10 5 12 12 12m959-66c3 0 5 1 5 9 9-6 19-10 30-11 10 0 19 5 19 22v57h-15v-54c0-9-4-12-11-12-8 1-16 3-23 8v58h-15v-77zm-66 78h-1a36 36 0 0 1-36-40 37 37 0 1 1 73 0 36 36 0 0 1-36 40m0-12c13 0 21-9 21-28 0-18-8-28-21-28s-22 10-22 28c0 19 9 28 22 28m-57 11h-15v-77h8c6 0 7 1 7 11zm-80-67-1-10h10v-21h15v21h17v10h-17v46c0 8 3 10 11 10h7v10l-12 2c-14 0-21-6-21-20v-48zm-49 68a36 36 0 0 1-36-40 37 37 0 1 1 74 0v4a36 36 0 0 1-37 36m0-12c13 0 22-9 22-28 0-18-9-28-22-28s-21 10-21 28c0 19 8 28 21 28m-156 11V408h23l27 78 27-78h22v103h-16v-84l-30 84h-10l-29-84v84zm-117-77c4 0 5 1 5 9 9-6 19-10 30-11 11 0 20 5 20 22v57h-15v-54c0-9-5-12-12-12-8 1-16 3-23 8v58h-14v-77zm-42-9c-5 0-9-4-9-8 0-5 4-9 9-9 4 0 8 4 9 9-1 4-5 8-9 8m7 86h-15v-77h8c6 0 7 1 7 11zm-72-36h-52c1 18 9 25 24 25 7 1 15-2 21-7h5v11c-9 5-19 8-29 8-23 0-36-15-36-40 0-24 15-40 35-40s32 12 32 38zm-32-32c-10 0-18 6-20 22h37c0-16-7-22-17-22m-50 3c-9 0-17 3-23 8v57h-15v-77h9c4 0 6 1 6 10 5-7 13-11 22-11h4v13zm-101 54c8-1 16-3 22-7v-59h15v77h-9c-4 0-5-1-6-9a50 50 0 0 1-30 10 19 19 0 0 1-19-21v-57h15v54c0 10 5 12 12 12m-88-56v-10h10v-21h15v21h17v10h-17v46c0 8 3 10 11 10h7v10l-12 2c-14 0-21-6-21-20v-48zm-143 67h-16V408h64v12h-48v34h36v12h-36zm-74-36h-52c1 18 9 25 23 25 8 1 16-2 22-7h4v11c-8 5-18 8-28 8-24 0-37-15-37-40 0-24 15-40 36-40 20 0 32 12 32 38zm-32-32c-10 0-18 6-20 22h37c0-16-7-22-17-22m-104-26v26c8-6 18-10 29-11 11 0 20 5 20 22v57h-15v-54c0-9-5-12-12-12-8 1-16 3-22 8v58h-16V407h9c6 0 7 2 7 10m-63 94h-16v-91h-29v-12h75v12h-30zm876-338c0-19-6-33-22-33-17 0-23 14-23 33v122h19v20h-104v-20h19V127h-19v-19h82v31h1c9-21 31-36 54-35 27-1 50 17 55 43l3 33v115h25v20h-90zm-419 0c0-19-6-33-22-33s-23 14-23 33v122h19v20H843v-20h20V127h-20v-19h82v31h1c9-21 31-36 55-35 26-1 49 17 55 43 2 11 2 22 2 33v115h25v20h-90zm597-46v153a12 12 0 0 0 13 13l12-2v19c-12 6-26 8-40 8-32 0-51-16-51-50V127h-22v-14l76-61h12v56h31v19zM276 0s50 50 73 76v19c-21-22-66-41-107-41-94 0-152 70-152 157s55 158 152 158c41 0 80-17 108-46v18c-29 40-83 67-149 67C82 408 0 321 0 211A199 199 0 0 1 201 15c25 0 51 5 75 13zm956 260 11 10a84 84 0 0 1-81 49c-63 0-94-47-94-107s31-108 94-108 87 43 87 101l-1 15h-111c1 48 31 59 49 59 18 1 35-6 46-19m-95-60h46c0-55-4-75-23-75s-23 21-23 75m-992 11c0-62 38-113 104-113s105 51 105 113c0 63-39 114-105 114s-104-51-104-114m77 0c0 63 6 91 27 91 22 0 28-28 28-91 0-64-6-92-28-92-21 0-27 28-27 92m278-38c0-19-5-33-22-33-16 0-22 14-22 33v122h19v20H371v-20h19V127h-19v-19h82v31h1c9-21 31-36 54-35 27-1 50 17 55 43l3 33v115h25v20h-91zM735 53c0-19 17-31 40-31 24 0 40 12 40 31 0 18-16 30-40 30-23 0-40-12-40-30m-56 74v153l-1 1a12 12 0 0 0 14 12l12-2v19c-12 6-26 8-40 8-32 0-51-16-51-50V127h-22v-14l75-61h13v56h25v19zm1211 168h25v20h-91V50h-23V31h89zm-173-5a61 61 0 0 1-53 29c-34 0-55-29-55-64 0-41 30-68 77-68 10 0 20 2 29 5v-13a35 35 0 0 0-35-39h-3c-18 0-36 9-47 25l-12-14c18-29 49-47 83-47 50 0 80 29 80 75v116h21v20h-84zm-3-78c-4-3-9-5-14-4-19 0-24 19-24 39s6 35 23 35c6 1 11-2 15-6zM723 315v-20h19V127h-19v-19h85v187h19v20z"/></svg>